<svg width="67" height="56" viewBox="0 0 67 56" fill="none" xmlns="http://www.w3.org/2000/svg">
<path fill-rule="evenodd" clip-rule="evenodd" d="M9.60739 12.1656C9.20073 12.9004 8.96139 13.9019 9.07579 14.3907C9.39092 15.7374 16.1823 22.1805 17.0678 21.9733C18.693 21.593 17.9896 19.8126 15.1055 17.0058C13.459 15.4035 12.2257 13.9099 12.3642 13.6867C12.5026 13.463 22.0392 12.2671 33.556 11.0288C45.0722 9.79066 54.6982 8.72712 54.9457 8.66538C55.1934 8.60425 55.4585 8.8188 55.5344 9.14311C55.6996 9.849 34.927 46.2358 34.1132 46.6653C33.1813 47.158 29.4394 36.3517 29.5162 33.3892C29.6213 29.3386 32.1835 25.9961 38.0872 22.2112C42.2768 19.5249 43.1491 18.7098 42.913 17.7007C42.5505 16.1514 41.1014 16.7461 34.821 21.0242C25.6948 27.2398 24.6547 31.775 29.4814 44.2966C31.4931 49.5158 32.169 50.2306 34.5621 49.6706C36.4719 49.2238 36.562 49.0819 50.7259 24.2704C59.1142 9.57579 59.8114 7.61264 57.1177 6.26875C56.2884 5.85497 15.1114 9.75985 11.3105 10.613C10.7807 10.7319 10.014 11.4308 9.60739 12.1656ZM13.1214 31.0003C10.3503 32.8009 9.19173 33.9062 9.35324 34.5964C9.75287 36.3042 10.3213 36.1953 14.4943 33.6121C19.1085 30.7565 20.5878 29.2964 19.735 28.4399C18.884 27.5854 17.6328 28.0696 13.1214 31.0003ZM14.0801 38.4637C9.61353 41.4501 7.2273 43.4092 7.25383 44.0687C7.32886 45.9598 8.98686 45.3258 15.8885 40.7657C23.8438 35.5101 24.1872 35.2091 23.4538 34.1288C22.6492 32.943 21.6395 33.4101 14.0801 38.4637Z" fill="#FFA500"/>
<path fill-rule="evenodd" clip-rule="evenodd" d="M9.60696 12.1658C9.20031 12.9006 8.96097 13.9021 9.07537 14.3909C9.39049 15.7376 16.1819 22.1807 17.0674 21.9735C18.6926 21.5932 17.9892 19.8128 15.1051 17.006C13.4585 15.4037 12.2252 13.9101 12.3638 13.6869C12.5022 13.4632 22.0388 12.2673 33.5555 11.029C45.0717 9.79086 54.6978 8.72732 54.9453 8.66558C55.193 8.60445 55.4581 8.819 55.534 9.14331C55.6991 9.84921 34.9266 46.236 34.1128 46.6655C33.1809 47.1582 29.439 36.3519 29.5158 33.3894C29.6208 29.3388 32.1831 25.9963 38.0867 22.2114C42.2764 19.5251 43.1487 18.71 42.9126 17.7009C42.5501 16.1517 41.1009 16.7464 34.8206 21.0244C25.6944 27.24 24.6542 31.7752 29.481 44.2968C31.4926 49.516 32.1686 50.2308 34.5617 49.6708C36.4714 49.224 36.5616 49.0821 50.7255 24.2706C59.1138 9.57599 59.811 7.61284 57.1172 6.26896C56.2879 5.85517 15.111 9.76005 11.3101 10.6132C10.7803 10.7321 10.0136 11.431 9.60696 12.1658Z" fill="#0336FF"/>
</svg>
